<?xml version="1.0" encoding="UTF-8"?>
<svg version="1.1" xmlns="http://www.w3.org/2000/svg" width="512" height="512">
<path d="M0 0 C1.13115234 -0.03738281 2.26230469 -0.07476562 3.42773438 -0.11328125 C12.60568639 -0.21051676 12.60568639 -0.21051676 16.28125 2.6484375 C18.97984731 5.87381579 19.52100788 7.4028637 19.734375 11.44921875 C19.39439762 15.25851077 17.55978141 17.43845872 14.85888672 19.97485352 C11.8168245 21.82965118 9.56039972 21.83550317 6.0078125 21.96484375 C4.67268262 22.02492793 3.3375592 22.0851557 2.00244141 22.14550781 C0.94878387 22.18544861 0.94878387 22.18544861 -0.12615967 22.22619629 C-35.26008386 23.61307462 -69.22134031 29.76666165 -102.4375 41.375 C-103.33629883 41.68663086 -104.23509766 41.99826172 -105.16113281 42.31933594 C-148.16292976 57.42030142 -191.12803099 82.79011995 -222.93359375 115.87109375 C-224.52559411 117.46309411 -226.20052447 118.88092676 -227.9375 120.3125 C-231.10714631 122.98425939 -233.75871247 125.90535756 -236.4375 129.0625 C-238.33807714 131.26004231 -240.30230226 133.38533036 -242.28979492 135.50415039 C-296.97775593 194.03220927 -329.18890481 276.41427682 -331.671875 356.12890625 C-331.70772705 357.26263672 -331.7435791 358.39636719 -331.78051758 359.56445312 C-331.84214608 361.76460673 -331.88953293 363.96521908 -331.9206543 366.16601562 C-332.08031329 372.56890958 -332.64890952 376.37984726 -337.125 381.1875 C-340.54879854 382.94566682 -343.72999678 383.15065806 -347.4375 382.375 C-350.95935256 380.39821824 -353.13707163 378.2762851 -354.4375 374.375 C-360.33266023 284.71372584 -319.90649944 190.37158145 -261.9921875 123.71142578 C-255.25535994 116.06753251 -248.04325728 108.86072175 -240.875 101.625 C-240.01253662 100.7494043 -239.15007324 99.87380859 -238.26147461 98.97167969 C-232.29981694 93.00268216 -226.02235502 87.64008276 -219.4375 82.375 C-218.18969657 81.3267282 -216.94565109 80.27395096 -215.70703125 79.21484375 C-198.18870724 64.41250005 -178.61245349 52.20892343 -158.4375 41.375 C-157.58043457 40.91287109 -156.72336914 40.45074219 -155.84033203 39.97460938 C-108.2435497 14.58255613 -53.93131292 0.69263799 0 0 Z " fill="#000000" transform="translate(423.4375,64.625)"/>
</svg>
