<?xml version="1.0" encoding="utf-8"?>
<!-- Generator: Adobe Illustrator 26.0.1, SVG Export Plug-In . SVG Version: 6.00 Build 0)  -->
<svg version="1.1" id="Layer_1" xmlns="http://www.w3.org/2000/svg" xmlns:xlink="http://www.w3.org/1999/xlink" x="0px" y="0px"
	 viewBox="0 0 1080 1080" style="enable-background:new 0 0 1080 1080;" xml:space="preserve">
<style type="text/css">
	.st0{fill:none;stroke:#FFFFFF;stroke-width:0.8915;stroke-miterlimit:10;}
	.st1{fill:#EF0101;}
</style>
<g>
	<g>
		<path class="st1" d="M922.8,349.9L922.8,349.9c-70.2,0-127.2-56.9-127.2-127.2v0c0-70.2,56.9-127.2,127.2-127.2h0
			c70.2,0,127.2,56.9,127.2,127.2v0C1050,293,993.1,349.9,922.8,349.9z"/>
		<path class="st1" d="M538.1,359.7c-96.7,0-180.8,15.4-251.1,43.9V119.6c0-13.3-10.8-24.1-24.1-24.1H54.1
			c-13.3,0-24.1,10.8-24.1,24.1v840.8c0,13.3,10.8,24.1,24.1,24.1h208.8c13.3,0,24.1-10.8,24.1-24.1V806c0-22.9,2.4-45.9,8.1-68.1
			C321.7,633.8,402.5,570,538.1,570c169,0,254.1,98.9,254.1,251.6v138.8c0,13.3,10.8,24.1,24.1,24.1h207.1
			c13.3,0,24.1-10.8,24.1-24.1V801.5C1047.5,535,864.8,359.7,538.1,359.7z"/>
	</g>
</g>
</svg>
